<svg width="186" height="34" viewBox="0 0 186 34" fill="none" xmlns="http://www.w3.org/2000/svg">
<path d="M0.54 17.6C0.54 14.5787 1.21467 11.88 2.564 9.504C3.94267 7.09866 5.80533 5.236 8.152 3.916C10.528 2.56667 13.1827 1.892 16.116 1.892C19.548 1.892 22.5547 2.772 25.136 4.532C27.7173 6.292 29.5213 8.72667 30.548 11.836H23.464C22.76 10.3693 21.7627 9.26933 20.472 8.536C19.2107 7.80266 17.744 7.436 16.072 7.436C14.2827 7.436 12.684 7.86133 11.276 8.712C9.89733 9.53333 8.812 10.7067 8.02 12.232C7.25733 13.7573 6.876 15.5467 6.876 17.6C6.876 19.624 7.25733 21.4133 8.02 22.968C8.812 24.4933 9.89733 25.6813 11.276 26.532C12.684 27.3533 14.2827 27.764 16.072 27.764C17.744 27.764 19.2107 27.3973 20.472 26.664C21.7627 25.9013 22.76 24.7867 23.464 23.32H30.548C29.5213 26.4587 27.7173 28.908 25.136 30.668C22.584 32.3987 19.5773 33.264 16.116 33.264C13.1827 33.264 10.528 32.604 8.152 31.284C5.80533 29.9347 3.94267 28.072 2.564 25.696C1.21467 23.32 0.54 20.6213 0.54 17.6ZM51.7374 8.932C51.4441 7.7 50.9308 6.776 50.1974 6.16C49.4934 5.544 48.4668 5.236 47.1174 5.236C45.0934 5.236 43.5974 6.05733 42.6294 7.7C41.6908 9.31333 41.2068 11.9533 41.1774 15.62C41.8814 14.4467 42.9081 13.5373 44.2574 12.892C45.6068 12.2173 47.0734 11.88 48.6574 11.88C50.5641 11.88 52.2508 12.2907 53.7174 13.112C55.1841 13.9333 56.3281 15.136 57.1494 16.72C57.9708 18.2747 58.3814 20.152 58.3814 22.352C58.3814 24.4347 57.9561 26.2973 57.1054 27.94C56.2841 29.5533 55.0668 30.8147 53.4534 31.724C51.8401 32.6333 49.9188 33.088 47.6894 33.088C44.6388 33.088 42.2334 32.4133 40.4734 31.064C38.7428 29.7147 37.5254 27.8373 36.8214 25.432C36.1468 22.9973 35.8094 20.0053 35.8094 16.456C35.8094 11.088 36.7334 7.04 38.5814 4.312C40.4294 1.55467 43.3481 0.175998 47.3374 0.175998C50.4174 0.175998 52.8081 1.012 54.5094 2.684C56.2108 4.356 57.1934 6.43867 57.4574 8.932H51.7374ZM47.2494 16.94C45.6948 16.94 44.3894 17.3947 43.3334 18.304C42.2774 19.2133 41.7494 20.5333 41.7494 22.264C41.7494 23.9947 42.2334 25.3587 43.2014 26.356C44.1988 27.3533 45.5921 27.852 47.3814 27.852C48.9654 27.852 50.2121 27.368 51.1214 26.4C52.0601 25.432 52.5294 24.1267 52.5294 22.484C52.5294 20.7827 52.0748 19.4333 51.1654 18.436C50.2854 17.4387 48.9801 16.94 47.2494 16.94ZM80.5983 12.188C81.3903 11.0147 82.4757 10.0613 83.8543 9.328C85.2623 8.59467 86.861 8.228 88.6503 8.228C90.733 8.228 92.6103 8.74133 94.2823 9.768C95.9837 10.7947 97.3183 12.2613 98.2863 14.168C99.2837 16.0453 99.7823 18.2307 99.7823 20.724C99.7823 23.2173 99.2837 25.432 98.2863 27.368C97.3183 29.2747 95.9837 30.756 94.2823 31.812C92.6103 32.868 90.733 33.396 88.6503 33.396C86.8317 33.396 85.233 33.044 83.8543 32.34C82.505 31.6067 81.4197 30.668 80.5983 29.524V33H74.4383V0.44H80.5983V12.188ZM93.4903 20.724C93.4903 19.2573 93.1823 17.996 92.5663 16.94C91.9797 15.8547 91.1877 15.0333 90.1903 14.476C89.2223 13.9187 88.1663 13.64 87.0223 13.64C85.9077 13.64 84.8517 13.9333 83.8543 14.52C82.8863 15.0773 82.0943 15.8987 81.4783 16.984C80.8917 18.0693 80.5983 19.3453 80.5983 20.812C80.5983 22.2787 80.8917 23.5547 81.4783 24.64C82.0943 25.7253 82.8863 26.5613 83.8543 27.148C84.8517 27.7053 85.9077 27.984 87.0223 27.984C88.1663 27.984 89.2223 27.6907 90.1903 27.104C91.1877 26.5173 91.9797 25.6813 92.5663 24.596C93.1823 23.5107 93.4903 22.22 93.4903 20.724ZM102.675 20.724C102.675 18.26 103.159 16.0747 104.127 14.168C105.124 12.2613 106.459 10.7947 108.131 9.768C109.832 8.74133 111.724 8.228 113.807 8.228C115.625 8.228 117.209 8.59467 118.559 9.328C119.937 10.0613 121.037 10.9853 121.859 12.1V8.624H128.063V33H121.859V29.436C121.067 30.58 119.967 31.5333 118.559 32.296C117.18 33.0293 115.581 33.396 113.763 33.396C111.709 33.396 109.832 32.868 108.131 31.812C106.459 30.756 105.124 29.2747 104.127 27.368C103.159 25.432 102.675 23.2173 102.675 20.724ZM121.859 20.812C121.859 19.316 121.565 18.04 120.979 16.984C120.392 15.8987 119.6 15.0773 118.603 14.52C117.605 13.9333 116.535 13.64 115.391 13.64C114.247 13.64 113.191 13.9187 112.223 14.476C111.255 15.0333 110.463 15.8547 109.847 16.94C109.26 17.996 108.967 19.2573 108.967 20.724C108.967 22.1907 109.26 23.4813 109.847 24.596C110.463 25.6813 111.255 26.5173 112.223 27.104C113.22 27.6907 114.276 27.984 115.391 27.984C116.535 27.984 117.605 27.7053 118.603 27.148C119.6 26.5613 120.392 25.74 120.979 24.684C121.565 23.5987 121.859 22.308 121.859 20.812ZM147.587 8.272C150.491 8.272 152.838 9.196 154.627 11.044C156.416 12.8627 157.311 15.4147 157.311 18.7V33H151.151V19.536C151.151 17.6 150.667 16.1187 149.699 15.092C148.731 14.036 147.411 13.508 145.739 13.508C144.038 13.508 142.688 14.036 141.691 15.092C140.723 16.1187 140.239 17.6 140.239 19.536V33H134.079V8.624H140.239V11.66C141.06 10.604 142.102 9.78267 143.363 9.196C144.654 8.58 146.062 8.272 147.587 8.272ZM177.601 33L169.329 22.616V33H163.169V0.44H169.329V18.964L177.513 8.624H185.521L174.785 20.856L185.609 33H177.601Z" fill="#B2B2B2"/>
</svg>
