<svg width="94" height="33" viewBox="0 0 94 33" fill="none" xmlns="http://www.w3.org/2000/svg">
<path d="M0.54 16.6C0.54 13.5787 1.21467 10.88 2.564 8.504C3.94267 6.09866 5.80533 4.236 8.152 2.916C10.528 1.56667 13.1827 0.891999 16.116 0.891999C19.548 0.891999 22.5547 1.772 25.136 3.532C27.7173 5.292 29.5213 7.72667 30.548 10.836H23.464C22.76 9.36933 21.7627 8.26933 20.472 7.536C19.2107 6.80266 17.744 6.436 16.072 6.436C14.2827 6.436 12.684 6.86133 11.276 7.712C9.89733 8.53333 8.812 9.70666 8.02 11.232C7.25733 12.7573 6.876 14.5467 6.876 16.6C6.876 18.624 7.25733 20.4133 8.02 21.968C8.812 23.4933 9.89733 24.6813 11.276 25.532C12.684 26.3533 14.2827 26.764 16.072 26.764C17.744 26.764 19.2107 26.3973 20.472 25.664C21.7627 24.9013 22.76 23.7867 23.464 22.32H30.548C29.5213 25.4587 27.7173 27.908 25.136 29.668C22.584 31.3987 19.5773 32.264 16.116 32.264C13.1827 32.264 10.528 31.604 8.152 30.284C5.80533 28.9347 3.94267 27.072 2.564 24.696C1.21467 22.32 0.54 19.6213 0.54 16.6ZM59.4374 32L56.0934 28.7C53.2481 31.252 49.7721 32.528 45.6654 32.528C43.4068 32.528 41.4121 32.1467 39.6814 31.384C37.9801 30.592 36.6601 29.492 35.7214 28.084C34.7828 26.6467 34.3134 24.9893 34.3134 23.112C34.3134 21.088 34.8854 19.2693 36.0294 17.656C37.1734 16.0427 38.8601 14.7373 41.0894 13.74C40.2974 12.772 39.7254 11.848 39.3734 10.968C39.0214 10.0587 38.8454 9.09067 38.8454 8.064C38.8454 6.656 39.2121 5.39467 39.9454 4.28C40.6788 3.136 41.7201 2.24133 43.0694 1.596C44.4481 0.950664 46.0468 0.627997 47.8654 0.627997C49.7134 0.627997 51.2974 0.979998 52.6174 1.684C53.9374 2.388 54.9201 3.32667 55.5654 4.5C56.2108 5.67333 56.4894 6.97867 56.4014 8.416H50.4174C50.4468 7.448 50.2121 6.71467 49.7134 6.216C49.2148 5.688 48.5401 5.424 47.6894 5.424C46.8681 5.424 46.1788 5.67333 45.6214 6.172C45.0934 6.64133 44.8294 7.25733 44.8294 8.02C44.8294 8.75333 45.0494 9.48666 45.4894 10.22C45.9294 10.924 46.6481 11.804 47.6454 12.86L55.3894 20.516C55.4481 20.4573 55.4921 20.3987 55.5214 20.34C55.5508 20.2813 55.5801 20.2227 55.6094 20.164L58.1174 15.984H64.5414L61.4614 21.396C60.8748 22.54 60.2441 23.6253 59.5694 24.652L67.0054 32H59.4374ZM45.8414 27.424C48.2468 27.424 50.3734 26.5733 52.2214 24.872L44.6534 17.392C41.8081 18.6533 40.3854 20.4427 40.3854 22.76C40.3854 24.08 40.8841 25.1947 41.8814 26.104C42.8788 26.984 44.1988 27.424 45.8414 27.424ZM68.4715 19.724C68.4715 17.26 68.9555 15.0747 69.9235 13.168C70.9209 11.2613 72.2555 9.79467 73.9275 8.768C75.6289 7.74133 77.5209 7.228 79.6035 7.228C81.4222 7.228 83.0062 7.59467 84.3555 8.328C85.7342 9.06133 86.8342 9.98533 87.6555 11.1V7.624H93.8595V32H87.6555V28.436C86.8635 29.58 85.7635 30.5333 84.3555 31.296C82.9769 32.0293 81.3782 32.396 79.5595 32.396C77.5062 32.396 75.6289 31.868 73.9275 30.812C72.2555 29.756 70.9209 28.2747 69.9235 26.368C68.9555 24.432 68.4715 22.2173 68.4715 19.724ZM87.6555 19.812C87.6555 18.316 87.3622 17.04 86.7755 15.984C86.1889 14.8987 85.3969 14.0773 84.3995 13.52C83.4022 12.9333 82.3315 12.64 81.1875 12.64C80.0435 12.64 78.9875 12.9187 78.0195 13.476C77.0515 14.0333 76.2595 14.8547 75.6435 15.94C75.0569 16.996 74.7635 18.2573 74.7635 19.724C74.7635 21.1907 75.0569 22.4813 75.6435 23.596C76.2595 24.6813 77.0515 25.5173 78.0195 26.104C79.0169 26.6907 80.0729 26.984 81.1875 26.984C82.3315 26.984 83.4022 26.7053 84.3995 26.148C85.3969 25.5613 86.1889 24.74 86.7755 23.684C87.3622 22.5987 87.6555 21.308 87.6555 19.812Z" fill="#B2B2B2"/>
</svg>
