<svg width="126" height="46" viewBox="0 0 126 46" fill="none" xmlns="http://www.w3.org/2000/svg">
<path d="M11.584 8.228C13.4027 8.228 15.0013 8.59467 16.38 9.328C17.7587 10.032 18.844 10.956 19.636 12.1V8.624H25.84V33.176C25.84 35.4347 25.3853 37.444 24.476 39.204C23.5667 40.9933 22.2027 42.4013 20.384 43.428C18.5653 44.484 16.3653 45.012 13.784 45.012C10.3227 45.012 7.47733 44.2053 5.248 42.592C3.048 40.9787 1.80133 38.7787 1.508 35.992H7.624C7.94667 37.1067 8.636 37.9867 9.692 38.632C10.7773 39.3067 12.0827 39.644 13.608 39.644C15.3973 39.644 16.8493 39.1013 17.964 38.016C19.0787 36.96 19.636 35.3467 19.636 33.176V29.392C18.844 30.536 17.744 31.4893 16.336 32.252C14.9573 33.0147 13.3733 33.396 11.584 33.396C9.53067 33.396 7.65333 32.868 5.952 31.812C4.25067 30.756 2.90133 29.2747 1.904 27.368C0.936 25.432 0.452 23.2173 0.452 20.724C0.452 18.26 0.936 16.0747 1.904 14.168C2.90133 12.2613 4.236 10.7947 5.908 9.768C7.60933 8.74133 9.50133 8.228 11.584 8.228ZM19.636 20.812C19.636 19.316 19.3427 18.04 18.756 16.984C18.1693 15.8987 17.3773 15.0773 16.38 14.52C15.3827 13.9333 14.312 13.64 13.168 13.64C12.024 13.64 10.968 13.9187 10 14.476C9.032 15.0333 8.24 15.8547 7.624 16.94C7.03733 17.996 6.744 19.2573 6.744 20.724C6.744 22.1907 7.03733 23.4813 7.624 24.596C8.24 25.6813 9.032 26.5173 10 27.104C10.9973 27.6907 12.0533 27.984 13.168 27.984C14.312 27.984 15.3827 27.7053 16.38 27.148C17.3773 26.5613 18.1693 25.74 18.756 24.684C19.3427 23.5987 19.636 22.308 19.636 20.812ZM38.0163 0.44V33H31.8563V0.44H38.0163ZM54.9264 33.396C52.5797 33.396 50.4677 32.8827 48.5904 31.856C46.7131 30.8 45.2317 29.3187 44.1464 27.412C43.0904 25.5053 42.5624 23.3053 42.5624 20.812C42.5624 18.3187 43.1051 16.1187 44.1904 14.212C45.3051 12.3053 46.8157 10.8387 48.7224 9.812C50.6291 8.756 52.7557 8.228 55.1024 8.228C57.4491 8.228 59.5757 8.756 61.4824 9.812C63.3891 10.8387 64.8851 12.3053 65.9704 14.212C67.0851 16.1187 67.6424 18.3187 67.6424 20.812C67.6424 23.3053 67.0704 25.5053 65.9264 27.412C64.8117 29.3187 63.2864 30.8 61.3504 31.856C59.4437 32.8827 57.3024 33.396 54.9264 33.396ZM54.9264 28.028C56.0411 28.028 57.0824 27.764 58.0504 27.236C59.0477 26.6787 59.8397 25.8573 60.4264 24.772C61.0131 23.6867 61.3064 22.3667 61.3064 20.812C61.3064 18.4947 60.6904 16.72 59.4584 15.488C58.2557 14.2267 56.7744 13.596 55.0144 13.596C53.2544 13.596 51.7731 14.2267 50.5704 15.488C49.3971 16.72 48.8104 18.4947 48.8104 20.812C48.8104 23.1293 49.3824 24.9187 50.5264 26.18C51.6997 27.412 53.1664 28.028 54.9264 28.028ZM78.321 12.188C79.113 11.0147 80.1983 10.0613 81.577 9.328C82.985 8.59467 84.5837 8.228 86.373 8.228C88.4557 8.228 90.333 8.74133 92.005 9.768C93.7063 10.7947 95.041 12.2613 96.009 14.168C97.0063 16.0453 97.505 18.2307 97.505 20.724C97.505 23.2173 97.0063 25.432 96.009 27.368C95.041 29.2747 93.7063 30.756 92.005 31.812C90.333 32.868 88.4557 33.396 86.373 33.396C84.5543 33.396 82.9557 33.044 81.577 32.34C80.2277 31.6067 79.1423 30.668 78.321 29.524V33H72.161V0.44H78.321V12.188ZM91.213 20.724C91.213 19.2573 90.905 17.996 90.289 16.94C89.7023 15.8547 88.9103 15.0333 87.913 14.476C86.945 13.9187 85.889 13.64 84.745 13.64C83.6303 13.64 82.5743 13.9333 81.577 14.52C80.609 15.0773 79.817 15.8987 79.201 16.984C78.6143 18.0693 78.321 19.3453 78.321 20.812C78.321 22.2787 78.6143 23.5547 79.201 24.64C79.817 25.7253 80.609 26.5613 81.577 27.148C82.5743 27.7053 83.6303 27.984 84.745 27.984C85.889 27.984 86.945 27.6907 87.913 27.104C88.9103 26.5173 89.7023 25.6813 90.289 24.596C90.905 23.5107 91.213 22.22 91.213 20.724ZM112.805 33.396C110.459 33.396 108.347 32.8827 106.469 31.856C104.592 30.8 103.111 29.3187 102.025 27.412C100.969 25.5053 100.441 23.3053 100.441 20.812C100.441 18.3187 100.984 16.1187 102.069 14.212C103.184 12.3053 104.695 10.8387 106.601 9.812C108.508 8.756 110.635 8.228 112.981 8.228C115.328 8.228 117.455 8.756 119.361 9.812C121.268 10.8387 122.764 12.3053 123.849 14.212C124.964 16.1187 125.521 18.3187 125.521 20.812C125.521 23.3053 124.949 25.5053 123.805 27.412C122.691 29.3187 121.165 30.8 119.229 31.856C117.323 32.8827 115.181 33.396 112.805 33.396ZM112.805 28.028C113.92 28.028 114.961 27.764 115.929 27.236C116.927 26.6787 117.719 25.8573 118.305 24.772C118.892 23.6867 119.185 22.3667 119.185 20.812C119.185 18.4947 118.569 16.72 117.337 15.488C116.135 14.2267 114.653 13.596 112.893 13.596C111.133 13.596 109.652 14.2267 108.449 15.488C107.276 16.72 106.689 18.4947 106.689 20.812C106.689 23.1293 107.261 24.9187 108.405 26.18C109.579 27.412 111.045 28.028 112.805 28.028Z" fill="#B2B2B2"/>
</svg>
