<svg width="108" height="36" viewBox="0 0 108 36" fill="none" xmlns="http://www.w3.org/2000/svg">
<path d="M6.196 4.288V35H0.0360003V4.288H6.196ZM23.4581 15.684H19.1901V35H12.9421V15.684H10.1701V10.624H12.9421V9.392C12.9421 6.4 13.7928 4.2 15.4941 2.792C17.1954 1.384 19.7621 0.723999 23.1941 0.812V6.004C21.6981 5.97467 20.6568 6.224 20.0701 6.752C19.4834 7.28 19.1901 8.23333 19.1901 9.612V10.624H23.4581V15.684ZM38.2741 35.396C35.9274 35.396 33.8154 34.8827 31.9381 33.856C30.0607 32.8 28.5794 31.3187 27.4941 29.412C26.4381 27.5053 25.9101 25.3053 25.9101 22.812C25.9101 20.3187 26.4527 18.1187 27.5381 16.212C28.6527 14.3053 30.1634 12.8387 32.0701 11.812C33.9767 10.756 36.1034 10.228 38.4501 10.228C40.7967 10.228 42.9234 10.756 44.8301 11.812C46.7367 12.8387 48.2327 14.3053 49.3181 16.212C50.4327 18.1187 50.9901 20.3187 50.9901 22.812C50.9901 25.3053 50.4181 27.5053 49.2741 29.412C48.1594 31.3187 46.6341 32.8 44.6981 33.856C42.7914 34.8827 40.6501 35.396 38.2741 35.396ZM38.2741 30.028C39.3887 30.028 40.4301 29.764 41.3981 29.236C42.3954 28.6787 43.1874 27.8573 43.7741 26.772C44.3607 25.6867 44.6541 24.3667 44.6541 22.812C44.6541 20.4947 44.0381 18.72 42.8061 17.488C41.6034 16.2267 40.1221 15.596 38.3621 15.596C36.6021 15.596 35.1207 16.2267 33.9181 17.488C32.7447 18.72 32.1581 20.4947 32.1581 22.812C32.1581 25.1293 32.7301 26.9187 33.8741 28.18C35.0474 29.412 36.5141 30.028 38.2741 30.028ZM66.3327 35.396C63.986 35.396 61.874 34.8827 59.9967 33.856C58.1193 32.8 56.638 31.3187 55.5527 29.412C54.4967 27.5053 53.9687 25.3053 53.9687 22.812C53.9687 20.3187 54.5113 18.1187 55.5967 16.212C56.7113 14.3053 58.222 12.8387 60.1287 11.812C62.0353 10.756 64.162 10.228 66.5087 10.228C68.8553 10.228 70.982 10.756 72.8887 11.812C74.7953 12.8387 76.2913 14.3053 77.3767 16.212C78.4913 18.1187 79.0487 20.3187 79.0487 22.812C79.0487 25.3053 78.4767 27.5053 77.3327 29.412C76.218 31.3187 74.6927 32.8 72.7567 33.856C70.85 34.8827 68.7087 35.396 66.3327 35.396ZM66.3327 30.028C67.4473 30.028 68.4887 29.764 69.4567 29.236C70.454 28.6787 71.246 27.8573 71.8327 26.772C72.4193 25.6867 72.7127 24.3667 72.7127 22.812C72.7127 20.4947 72.0967 18.72 70.8647 17.488C69.662 16.2267 68.1807 15.596 66.4207 15.596C64.6607 15.596 63.1793 16.2267 61.9767 17.488C60.8033 18.72 60.2167 20.4947 60.2167 22.812C60.2167 25.1293 60.7887 26.9187 61.9327 28.18C63.106 29.412 64.5727 30.028 66.3327 30.028ZM81.9832 22.724C81.9832 20.26 82.4672 18.0747 83.4352 16.168C84.4326 14.2613 85.7819 12.7947 87.4833 11.768C89.1846 10.7413 91.0766 10.228 93.1593 10.228C94.7433 10.228 96.2539 10.58 97.6913 11.284C99.1286 11.9587 100.273 12.868 101.123 14.012V2.44H107.371V35H101.123V31.392C100.361 32.5947 99.2899 33.5627 97.9113 34.296C96.5326 35.0293 94.9339 35.396 93.1153 35.396C91.0619 35.396 89.1846 34.868 87.4833 33.812C85.7819 32.756 84.4326 31.2747 83.4352 29.368C82.4672 27.432 81.9832 25.2173 81.9832 22.724ZM101.167 22.812C101.167 21.316 100.874 20.04 100.287 18.984C99.7006 17.8987 98.9086 17.0773 97.9113 16.52C96.9139 15.9333 95.8433 15.64 94.6993 15.64C93.5553 15.64 92.4993 15.9187 91.5312 16.476C90.5633 17.0333 89.7713 17.8547 89.1553 18.94C88.5686 19.996 88.2753 21.2573 88.2753 22.724C88.2753 24.1907 88.5686 25.4813 89.1553 26.596C89.7713 27.6813 90.5633 28.5173 91.5312 29.104C92.5286 29.6907 93.5846 29.984 94.6993 29.984C95.8433 29.984 96.9139 29.7053 97.9113 29.148C98.9086 28.5613 99.7006 27.74 100.287 26.684C100.874 25.5987 101.167 24.308 101.167 22.812Z" fill="#B2B2B2"/>
</svg>
