<svg width="265" height="34" viewBox="0 0 265 34" fill="none" xmlns="http://www.w3.org/2000/svg">
<path d="M30.308 8.272C33.3 8.272 35.7053 9.196 37.524 11.044C39.372 12.8627 40.296 15.4147 40.296 18.7V33H34.136V19.536C34.136 17.6293 33.652 16.1773 32.684 15.18C31.716 14.1533 30.396 13.64 28.724 13.64C27.052 13.64 25.7173 14.1533 24.72 15.18C23.752 16.1773 23.268 17.6293 23.268 19.536V33H17.108V19.536C17.108 17.6293 16.624 16.1773 15.656 15.18C14.688 14.1533 13.368 13.64 11.696 13.64C9.99467 13.64 8.64533 14.1533 7.648 15.18C6.68 16.1773 6.196 17.6293 6.196 19.536V33H0.0360003V8.624H6.196V11.572C6.988 10.5453 8 9.73867 9.232 9.152C10.4933 8.56533 11.872 8.272 13.368 8.272C15.2747 8.272 16.976 8.68267 18.472 9.504C19.968 10.296 21.1267 11.44 21.948 12.936C22.74 11.528 23.884 10.3987 25.38 9.548C26.9053 8.69733 28.548 8.272 30.308 8.272ZM44.5575 20.812C44.5575 18.2893 45.0708 16.0893 46.0975 14.212C47.1241 12.3053 48.5468 10.8387 50.3655 9.812C52.1841 8.756 54.2668 8.228 56.6135 8.228C59.6348 8.228 62.1281 8.99067 64.0935 10.516C66.0881 12.012 67.4228 14.124 68.0975 16.852H61.4535C61.1015 15.796 60.5001 14.9747 59.6495 14.388C58.8281 13.772 57.8015 13.464 56.5695 13.464C54.8095 13.464 53.4161 14.1093 52.3895 15.4C51.3628 16.6613 50.8495 18.4653 50.8495 20.812C50.8495 23.1293 51.3628 24.9333 52.3895 26.224C53.4161 27.4853 54.8095 28.116 56.5695 28.116C59.0628 28.116 60.6908 27.0013 61.4535 24.772H68.0975C67.4228 27.412 66.0881 29.5093 64.0935 31.064C62.0988 32.6187 59.6055 33.396 56.6135 33.396C54.2668 33.396 52.1841 32.8827 50.3655 31.856C48.5468 30.8 47.1241 29.3333 46.0975 27.456C45.0708 25.5493 44.5575 23.3347 44.5575 20.812ZM83.3462 2.288C86.5729 2.288 89.4036 2.91867 91.8382 4.18C94.3022 5.44133 96.1942 7.24533 97.5142 9.592C98.8636 11.9093 99.5382 14.608 99.5382 17.688C99.5382 20.768 98.8636 23.4667 97.5142 25.784C96.1942 28.072 94.3022 29.8467 91.8382 31.108C89.4036 32.3693 86.5729 33 83.3462 33H72.6102V2.288H83.3462ZM83.1262 27.764C86.3529 27.764 88.8462 26.884 90.6062 25.124C92.3662 23.364 93.2462 20.8853 93.2462 17.688C93.2462 14.4907 92.3662 11.9973 90.6062 10.208C88.8462 8.38933 86.3529 7.48 83.1262 7.48H78.7702V27.764H83.1262ZM114.973 33.396C112.627 33.396 110.515 32.8827 108.637 31.856C106.76 30.8 105.279 29.3187 104.193 27.412C103.137 25.5053 102.609 23.3053 102.609 20.812C102.609 18.3187 103.152 16.1187 104.237 14.212C105.352 12.3053 106.863 10.8387 108.769 9.812C110.676 8.756 112.803 8.228 115.149 8.228C117.496 8.228 119.623 8.756 121.529 9.812C123.436 10.8387 124.932 12.3053 126.017 14.212C127.132 16.1187 127.689 18.3187 127.689 20.812C127.689 23.3053 127.117 25.5053 125.973 27.412C124.859 29.3187 123.333 30.8 121.397 31.856C119.491 32.8827 117.349 33.396 114.973 33.396ZM114.973 28.028C116.088 28.028 117.129 27.764 118.097 27.236C119.095 26.6787 119.887 25.8573 120.473 24.772C121.06 23.6867 121.353 22.3667 121.353 20.812C121.353 18.4947 120.737 16.72 119.505 15.488C118.303 14.2267 116.821 13.596 115.061 13.596C113.301 13.596 111.82 14.2267 110.617 15.488C109.444 16.72 108.857 18.4947 108.857 20.812C108.857 23.1293 109.429 24.9187 110.573 26.18C111.747 27.412 113.213 28.028 114.973 28.028ZM145.716 8.272C148.62 8.272 150.967 9.196 152.756 11.044C154.545 12.8627 155.44 15.4147 155.44 18.7V33H149.28V19.536C149.28 17.6 148.796 16.1187 147.828 15.092C146.86 14.036 145.54 13.508 143.868 13.508C142.167 13.508 140.817 14.036 139.82 15.092C138.852 16.1187 138.368 17.6 138.368 19.536V33H132.208V8.624H138.368V11.66C139.189 10.604 140.231 9.78267 141.492 9.196C142.783 8.58 144.191 8.272 145.716 8.272ZM159.714 20.724C159.714 18.26 160.198 16.0747 161.166 14.168C162.163 12.2613 163.498 10.7947 165.17 9.768C166.871 8.74133 168.763 8.228 170.846 8.228C172.664 8.228 174.248 8.59467 175.598 9.328C176.976 10.0613 178.076 10.9853 178.898 12.1V8.624H185.102V33H178.898V29.436C178.106 30.58 177.006 31.5333 175.598 32.296C174.219 33.0293 172.62 33.396 170.802 33.396C168.748 33.396 166.871 32.868 165.17 31.812C163.498 30.756 162.163 29.2747 161.166 27.368C160.198 25.432 159.714 23.2173 159.714 20.724ZM178.898 20.812C178.898 19.316 178.604 18.04 178.018 16.984C177.431 15.8987 176.639 15.0773 175.642 14.52C174.644 13.9333 173.574 13.64 172.43 13.64C171.286 13.64 170.23 13.9187 169.262 14.476C168.294 15.0333 167.502 15.8547 166.886 16.94C166.299 17.996 166.006 19.2573 166.006 20.724C166.006 22.1907 166.299 23.4813 166.886 24.596C167.502 25.6813 168.294 26.5173 169.262 27.104C170.259 27.6907 171.315 27.984 172.43 27.984C173.574 27.984 174.644 27.7053 175.642 27.148C176.639 26.5613 177.431 25.74 178.018 24.684C178.604 23.5987 178.898 22.308 178.898 20.812ZM197.278 0.44V33H191.118V0.44H197.278ZM201.78 20.724C201.78 18.26 202.264 16.0747 203.232 14.168C204.229 12.2613 205.579 10.7947 207.28 9.768C208.981 8.74133 210.873 8.228 212.956 8.228C214.54 8.228 216.051 8.58 217.488 9.284C218.925 9.95867 220.069 10.868 220.92 12.012V0.44H227.168V33H220.92V29.392C220.157 30.5947 219.087 31.5627 217.708 32.296C216.329 33.0293 214.731 33.396 212.912 33.396C210.859 33.396 208.981 32.868 207.28 31.812C205.579 30.756 204.229 29.2747 203.232 27.368C202.264 25.432 201.78 23.2173 201.78 20.724ZM220.964 20.812C220.964 19.316 220.671 18.04 220.084 16.984C219.497 15.8987 218.705 15.0773 217.708 14.52C216.711 13.9333 215.64 13.64 214.496 13.64C213.352 13.64 212.296 13.9187 211.328 14.476C210.36 15.0333 209.568 15.8547 208.952 16.94C208.365 17.996 208.072 19.2573 208.072 20.724C208.072 22.1907 208.365 23.4813 208.952 24.596C209.568 25.6813 210.36 26.5173 211.328 27.104C212.325 27.6907 213.381 27.984 214.496 27.984C215.64 27.984 216.711 27.7053 217.708 27.148C218.705 26.5613 219.497 25.74 220.084 24.684C220.671 23.5987 220.964 22.308 220.964 20.812ZM234.416 2.288H240.884L236.132 13.376H231.908L234.416 2.288ZM254.63 33.396C252.635 33.396 250.846 33.044 249.262 32.34C247.678 31.6067 246.416 30.624 245.478 29.392C244.568 28.16 244.07 26.796 243.982 25.3H250.186C250.303 26.2387 250.758 27.016 251.55 27.632C252.371 28.248 253.383 28.556 254.586 28.556C255.759 28.556 256.668 28.3213 257.314 27.852C257.988 27.3827 258.326 26.7813 258.326 26.048C258.326 25.256 257.915 24.6693 257.094 24.288C256.302 23.8773 255.026 23.4373 253.266 22.968C251.447 22.528 249.951 22.0733 248.778 21.604C247.634 21.1347 246.636 20.416 245.786 19.448C244.964 18.48 244.554 17.1747 244.554 15.532C244.554 14.1827 244.935 12.9507 245.698 11.836C246.49 10.7213 247.604 9.84133 249.042 9.196C250.508 8.55067 252.224 8.228 254.19 8.228C257.094 8.228 259.411 8.96133 261.142 10.428C262.872 11.8653 263.826 13.816 264.002 16.28H258.106C258.018 15.312 257.607 14.5493 256.874 13.992C256.17 13.4053 255.216 13.112 254.014 13.112C252.899 13.112 252.034 13.3173 251.418 13.728C250.831 14.1387 250.538 14.7107 250.538 15.444C250.538 16.2653 250.948 16.896 251.77 17.336C252.591 17.7467 253.867 18.172 255.598 18.612C257.358 19.052 258.81 19.5067 259.954 19.976C261.098 20.4453 262.08 21.1787 262.902 22.176C263.752 23.144 264.192 24.4347 264.222 26.048C264.222 27.456 263.826 28.7173 263.034 29.832C262.271 30.9467 261.156 31.8267 259.69 32.472C258.252 33.088 256.566 33.396 254.63 33.396Z" fill="#B2B2B2"/>
</svg>
