<svg width="170" height="34" viewBox="0 0 170 34" fill="none" xmlns="http://www.w3.org/2000/svg">
<path d="M13.544 8.272C16.448 8.272 18.7947 9.196 20.584 11.044C22.3733 12.8627 23.268 15.4147 23.268 18.7V33H17.108V19.536C17.108 17.6 16.624 16.1187 15.656 15.092C14.688 14.036 13.368 13.508 11.696 13.508C9.99467 13.508 8.64533 14.036 7.648 15.092C6.68 16.1187 6.196 17.6 6.196 19.536V33H0.0360003V8.624H6.196V11.66C7.01733 10.604 8.05867 9.78267 9.32 9.196C10.6107 8.58 12.0187 8.272 13.544 8.272ZM52.1378 8.624V33H45.9338V29.92C45.1418 30.976 44.1005 31.812 42.8098 32.428C41.5485 33.0147 40.1698 33.308 38.6738 33.308C36.7672 33.308 35.0805 32.912 33.6138 32.12C32.1472 31.2987 30.9885 30.1107 30.1378 28.556C29.3165 26.972 28.9058 25.0947 28.9058 22.924V8.624H35.0658V22.044C35.0658 23.98 35.5498 25.476 36.5178 26.532C37.4858 27.5587 38.8058 28.072 40.4778 28.072C42.1792 28.072 43.5138 27.5587 44.4818 26.532C45.4498 25.476 45.9338 23.98 45.9338 22.044V8.624H52.1378ZM64.3757 12.188C65.1677 11.0147 66.253 10.0613 67.6317 9.328C69.0397 8.59467 70.6384 8.228 72.4277 8.228C74.5104 8.228 76.3877 8.74133 78.0597 9.768C79.761 10.7947 81.0957 12.2613 82.0637 14.168C83.061 16.0453 83.5597 18.2307 83.5597 20.724C83.5597 23.2173 83.061 25.432 82.0637 27.368C81.0957 29.2747 79.761 30.756 78.0597 31.812C76.3877 32.868 74.5104 33.396 72.4277 33.396C70.609 33.396 69.0104 33.044 67.6317 32.34C66.2824 31.6067 65.197 30.668 64.3757 29.524V33H58.2157V0.44H64.3757V12.188ZM77.2677 20.724C77.2677 19.2573 76.9597 17.996 76.3437 16.94C75.757 15.8547 74.965 15.0333 73.9677 14.476C72.9997 13.9187 71.9437 13.64 70.7997 13.64C69.685 13.64 68.629 13.9333 67.6317 14.52C66.6637 15.0773 65.8717 15.8987 65.2557 16.984C64.669 18.0693 64.3757 19.3453 64.3757 20.812C64.3757 22.2787 64.669 23.5547 65.2557 24.64C65.8717 25.7253 66.6637 26.5613 67.6317 27.148C68.629 27.7053 69.685 27.984 70.7997 27.984C71.9437 27.984 72.9997 27.6907 73.9677 27.104C74.965 26.5173 75.757 25.6813 76.3437 24.596C76.9597 23.5107 77.2677 22.22 77.2677 20.724ZM86.452 20.724C86.452 18.26 86.936 16.0747 87.904 14.168C88.9013 12.2613 90.236 10.7947 91.908 9.768C93.6093 8.74133 95.5013 8.228 97.584 8.228C99.4027 8.228 100.987 8.59467 102.336 9.328C103.715 10.0613 104.815 10.9853 105.636 12.1V8.624H111.84V33H105.636V29.436C104.844 30.58 103.744 31.5333 102.336 32.296C100.957 33.0293 99.3587 33.396 97.54 33.396C95.4867 33.396 93.6093 32.868 91.908 31.812C90.236 30.756 88.9013 29.2747 87.904 27.368C86.936 25.432 86.452 23.2173 86.452 20.724ZM105.636 20.812C105.636 19.316 105.343 18.04 104.756 16.984C104.169 15.8987 103.377 15.0773 102.38 14.52C101.383 13.9333 100.312 13.64 99.168 13.64C98.024 13.64 96.968 13.9187 96 14.476C95.032 15.0333 94.24 15.8547 93.624 16.94C93.0373 17.996 92.744 19.2573 92.744 20.724C92.744 22.1907 93.0373 23.4813 93.624 24.596C94.24 25.6813 95.032 26.5173 96 27.104C96.9973 27.6907 98.0533 27.984 99.168 27.984C100.312 27.984 101.383 27.7053 102.38 27.148C103.377 26.5613 104.169 25.74 104.756 24.684C105.343 23.5987 105.636 22.308 105.636 20.812ZM131.364 8.272C134.268 8.272 136.615 9.196 138.404 11.044C140.194 12.8627 141.088 15.4147 141.088 18.7V33H134.928V19.536C134.928 17.6 134.444 16.1187 133.476 15.092C132.508 14.036 131.188 13.508 129.516 13.508C127.815 13.508 126.466 14.036 125.468 15.092C124.5 16.1187 124.016 17.6 124.016 19.536V33H117.856V8.624H124.016V11.66C124.838 10.604 125.879 9.78267 127.14 9.196C128.431 8.58 129.839 8.272 131.364 8.272ZM161.378 33L153.106 22.616V33H146.946V0.44H153.106V18.964L161.29 8.624H169.298L158.562 20.856L169.386 33H161.378Z" fill="#B2B2B2"/>
</svg>
