<svg width="152" height="47" viewBox="0 0 152 47" fill="none" xmlns="http://www.w3.org/2000/svg">
<path d="M11.364 35.396C9.36933 35.396 7.58 35.044 5.996 34.34C4.412 33.6067 3.15067 32.624 2.212 31.392C1.30267 30.16 0.804 28.796 0.716 27.3H6.92C7.03733 28.2387 7.492 29.016 8.284 29.632C9.10533 30.248 10.1173 30.556 11.32 30.556C12.4933 30.556 13.4027 30.3213 14.048 29.852C14.7227 29.3827 15.06 28.7813 15.06 28.048C15.06 27.256 14.6493 26.6693 13.828 26.288C13.036 25.8773 11.76 25.4373 10 24.968C8.18133 24.528 6.68533 24.0733 5.512 23.604C4.368 23.1347 3.37067 22.416 2.52 21.448C1.69867 20.48 1.288 19.1747 1.288 17.532C1.288 16.1827 1.66933 14.9507 2.432 13.836C3.224 12.7213 4.33867 11.8413 5.776 11.196C7.24267 10.5507 8.95867 10.228 10.924 10.228C13.828 10.228 16.1453 10.9613 17.876 12.428C19.6067 13.8653 20.56 15.816 20.736 18.28H14.84C14.752 17.312 14.3413 16.5493 13.608 15.992C12.904 15.4053 11.9507 15.112 10.748 15.112C9.63333 15.112 8.768 15.3173 8.152 15.728C7.56533 16.1387 7.272 16.7107 7.272 17.444C7.272 18.2653 7.68267 18.896 8.504 19.336C9.32533 19.7467 10.6013 20.172 12.332 20.612C14.092 21.052 15.544 21.5067 16.688 21.976C17.832 22.4453 18.8147 23.1787 19.636 24.176C20.4867 25.144 20.9267 26.4347 20.956 28.048C20.956 29.456 20.56 30.7173 19.768 31.832C19.0053 32.9467 17.8907 33.8267 16.424 34.472C14.9867 35.088 13.3 35.396 11.364 35.396ZM32.1726 14.144C32.9646 13.0293 34.0499 12.1053 35.4286 11.372C36.8366 10.6093 38.4352 10.228 40.2246 10.228C42.3072 10.228 44.1846 10.7413 45.8566 11.768C47.5579 12.7947 48.8926 14.2613 49.8606 16.168C50.8579 18.0453 51.3566 20.2307 51.3566 22.724C51.3566 25.2173 50.8579 27.432 49.8606 29.368C48.8926 31.2747 47.5579 32.756 45.8566 33.812C44.1846 34.868 42.3072 35.396 40.2246 35.396C38.4352 35.396 36.8512 35.0293 35.4726 34.296C34.1232 33.5627 33.0232 32.6387 32.1726 31.524V46.616H26.0126V10.624H32.1726V14.144ZM45.0646 22.724C45.0646 21.2573 44.7566 19.996 44.1406 18.94C43.5539 17.8547 42.7619 17.0333 41.7646 16.476C40.7966 15.9187 39.7406 15.64 38.5966 15.64C37.4819 15.64 36.4259 15.9333 35.4286 16.52C34.4606 17.0773 33.6686 17.8987 33.0526 18.984C32.4659 20.0693 32.1726 21.3453 32.1726 22.812C32.1726 24.2787 32.4659 25.5547 33.0526 26.64C33.6686 27.7253 34.4606 28.5613 35.4286 29.148C36.4259 29.7053 37.4819 29.984 38.5966 29.984C39.7406 29.984 40.7966 29.6907 41.7646 29.104C42.7619 28.5173 43.5539 27.6813 44.1406 26.596C44.7566 25.5107 45.0646 24.22 45.0646 22.724ZM66.6569 35.396C64.3102 35.396 62.1982 34.8827 60.3209 33.856C58.4435 32.8 56.9622 31.3187 55.8769 29.412C54.8209 27.5053 54.2929 25.3053 54.2929 22.812C54.2929 20.3187 54.8355 18.1187 55.9209 16.212C57.0355 14.3053 58.5462 12.8387 60.4529 11.812C62.3595 10.756 64.4862 10.228 66.8329 10.228C69.1795 10.228 71.3062 10.756 73.2129 11.812C75.1195 12.8387 76.6155 14.3053 77.7009 16.212C78.8155 18.1187 79.3729 20.3187 79.3729 22.812C79.3729 25.3053 78.8009 27.5053 77.6569 29.412C76.5422 31.3187 75.0169 32.8 73.0809 33.856C71.1742 34.8827 69.0329 35.396 66.6569 35.396ZM66.6569 30.028C67.7715 30.028 68.8129 29.764 69.7809 29.236C70.7782 28.6787 71.5702 27.8573 72.1569 26.772C72.7435 25.6867 73.0369 24.3667 73.0369 22.812C73.0369 20.4947 72.4209 18.72 71.1889 17.488C69.9862 16.2267 68.5049 15.596 66.7449 15.596C64.9849 15.596 63.5035 16.2267 62.3009 17.488C61.1275 18.72 60.5409 20.4947 60.5409 22.812C60.5409 25.1293 61.1129 26.9187 62.2569 28.18C63.4302 29.412 64.8969 30.028 66.6569 30.028ZM91.0635 15.684V27.476C91.0635 28.2973 91.2541 28.8987 91.6355 29.28C92.0461 29.632 92.7208 29.808 93.6595 29.808H96.5195V35H92.6475C87.4555 35 84.8595 32.4773 84.8595 27.432V15.684H81.9555V10.624H84.8595V4.596H91.0635V10.624H96.5195V15.684H91.0635ZM104.074 7.72C102.989 7.72 102.079 7.38267 101.346 6.708C100.642 6.004 100.29 5.13866 100.29 4.112C100.29 3.08533 100.642 2.23466 101.346 1.56C102.079 0.855998 102.989 0.503998 104.074 0.503998C105.159 0.503998 106.054 0.855998 106.758 1.56C107.491 2.23466 107.858 3.08533 107.858 4.112C107.858 5.13866 107.491 6.004 106.758 6.708C106.054 7.38267 105.159 7.72 104.074 7.72ZM107.11 10.624V35H100.95V10.624H107.11ZM124.372 15.684H120.104V35H113.856V15.684H111.084V10.624H113.856V9.392C113.856 6.4 114.707 4.2 116.408 2.792C118.109 1.384 120.676 0.723999 124.108 0.812V6.004C122.612 5.97467 121.571 6.224 120.984 6.752C120.397 7.28 120.104 8.23333 120.104 9.612V10.624H124.372V15.684ZM151.684 10.624L136.592 46.528H130.036L135.316 34.384L125.548 10.624H132.456L138.748 27.652L145.128 10.624H151.684Z" fill="#B2B2B2"/>
</svg>
