<svg width="101" height="34" viewBox="0 0 101 34" fill="none" xmlns="http://www.w3.org/2000/svg">
<path d="M24.048 8.624V33H17.844V29.92C17.052 30.976 16.0107 31.812 14.72 32.428C13.4587 33.0147 12.08 33.308 10.584 33.308C8.67733 33.308 6.99067 32.912 5.524 32.12C4.05733 31.2987 2.89867 30.1107 2.048 28.556C1.22667 26.972 0.816 25.0947 0.816 22.924V8.624H6.976V22.044C6.976 23.98 7.46 25.476 8.428 26.532C9.396 27.5587 10.716 28.072 12.388 28.072C14.0893 28.072 15.424 27.5587 16.392 26.532C17.36 25.476 17.844 23.98 17.844 22.044V8.624H24.048ZM36.2858 12.188C37.0778 11.0147 38.1632 10.0613 39.5418 9.328C40.9498 8.59467 42.5485 8.228 44.3378 8.228C46.4205 8.228 48.2978 8.74133 49.9698 9.768C51.6712 10.7947 53.0058 12.2613 53.9738 14.168C54.9712 16.0453 55.4698 18.2307 55.4698 20.724C55.4698 23.2173 54.9712 25.432 53.9738 27.368C53.0058 29.2747 51.6712 30.756 49.9698 31.812C48.2978 32.868 46.4205 33.396 44.3378 33.396C42.5192 33.396 40.9205 33.044 39.5418 32.34C38.1925 31.6067 37.1072 30.668 36.2858 29.524V33H30.1258V0.44H36.2858V12.188ZM49.1778 20.724C49.1778 19.2573 48.8698 17.996 48.2538 16.94C47.6672 15.8547 46.8752 15.0333 45.8778 14.476C44.9098 13.9187 43.8538 13.64 42.7098 13.64C41.5952 13.64 40.5392 13.9333 39.5418 14.52C38.5738 15.0773 37.7818 15.8987 37.1658 16.984C36.5792 18.0693 36.2858 19.3453 36.2858 20.812C36.2858 22.2787 36.5792 23.5547 37.1658 24.64C37.7818 25.7253 38.5738 26.5613 39.5418 27.148C40.5392 27.7053 41.5952 27.984 42.7098 27.984C43.8538 27.984 44.9098 27.6907 45.8778 27.104C46.8752 26.5173 47.6672 25.6813 48.2538 24.596C48.8698 23.5107 49.1778 22.22 49.1778 20.724ZM82.6062 20.284C82.6062 21.164 82.5475 21.956 82.4302 22.66H64.6102C64.7568 24.42 65.3728 25.7987 66.4582 26.796C67.5435 27.7933 68.8782 28.292 70.4622 28.292C72.7502 28.292 74.3782 27.3093 75.3462 25.344H81.9902C81.2862 27.6907 79.9368 29.6267 77.9422 31.152C75.9475 32.648 73.4982 33.396 70.5942 33.396C68.2475 33.396 66.1355 32.8827 64.2582 31.856C62.4102 30.8 60.9582 29.3187 59.9022 27.412C58.8755 25.5053 58.3622 23.3053 58.3622 20.812C58.3622 18.2893 58.8755 16.0747 59.9022 14.168C60.9288 12.2613 62.3662 10.7947 64.2142 9.768C66.0622 8.74133 68.1888 8.228 70.5942 8.228C72.9115 8.228 74.9795 8.72667 76.7982 9.724C78.6462 10.7213 80.0688 12.144 81.0662 13.992C82.0928 15.8107 82.6062 17.908 82.6062 20.284ZM76.2262 18.524C76.1968 16.94 75.6248 15.6787 74.5102 14.74C73.3955 13.772 72.0315 13.288 70.4182 13.288C68.8928 13.288 67.6022 13.7573 66.5462 14.696C65.5195 15.6053 64.8888 16.8813 64.6542 18.524H76.2262ZM93.2624 12.408C94.0544 11.1173 95.0811 10.1053 96.3424 9.372C97.6331 8.63867 99.0997 8.272 100.742 8.272V14.74H99.1144C97.1784 14.74 95.7117 15.1947 94.7144 16.104C93.7464 17.0133 93.2624 18.5973 93.2624 20.856V33H87.1024V8.624H93.2624V12.408Z" fill="#B2B2B2"/>
</svg>
