<svg width="215" height="28" viewBox="0 0 215 28" fill="none" xmlns="http://www.w3.org/2000/svg">
<path d="M16 1.872V5.94H5.524V12.384H13.552V16.38H5.524V27H0.484V1.872H16ZM24.6138 10.152C25.2618 9.096 26.1018 8.268 27.1338 7.668C28.1898 7.068 29.3898 6.768 30.7338 6.768V12.06H29.4018C27.8178 12.06 26.6178 12.432 25.8018 13.176C25.0098 13.92 24.6138 15.216 24.6138 17.064V27H19.5738V7.056H24.6138V10.152ZM42.9845 27.324C41.0645 27.324 39.3365 26.904 37.8005 26.064C36.2645 25.2 35.0525 23.988 34.1645 22.428C33.3005 20.868 32.8685 19.068 32.8685 17.028C32.8685 14.988 33.3125 13.188 34.2005 11.628C35.1125 10.068 36.3485 8.868 37.9085 8.028C39.4685 7.164 41.2085 6.732 43.1285 6.732C45.0485 6.732 46.7885 7.164 48.3485 8.028C49.9085 8.868 51.1325 10.068 52.0205 11.628C52.9325 13.188 53.3885 14.988 53.3885 17.028C53.3885 19.068 52.9205 20.868 51.9845 22.428C51.0725 23.988 49.8245 25.2 48.2405 26.064C46.6805 26.904 44.9285 27.324 42.9845 27.324ZM42.9845 22.932C43.8965 22.932 44.7485 22.716 45.5405 22.284C46.3565 21.828 47.0045 21.156 47.4845 20.268C47.9645 19.38 48.2045 18.3 48.2045 17.028C48.2045 15.132 47.7005 13.68 46.6925 12.672C45.7085 11.64 44.4965 11.124 43.0565 11.124C41.6165 11.124 40.4045 11.64 39.4205 12.672C38.4605 13.68 37.9805 15.132 37.9805 17.028C37.9805 18.924 38.4485 20.388 39.3845 21.42C40.3445 22.428 41.5445 22.932 42.9845 22.932ZM68.1376 6.768C70.5136 6.768 72.4336 7.524 73.8976 9.036C75.3616 10.524 76.0936 12.612 76.0936 15.3V27H71.0536V15.984C71.0536 14.4 70.6576 13.188 69.8656 12.348C69.0736 11.484 67.9936 11.052 66.6256 11.052C65.2336 11.052 64.1296 11.484 63.3136 12.348C62.5216 13.188 62.1256 14.4 62.1256 15.984V27H57.0856V7.056H62.1256V9.54C62.7976 8.676 63.6496 8.004 64.6816 7.524C65.7376 7.02 66.8896 6.768 68.1376 6.768ZM86.7543 11.196V20.844C86.7543 21.516 86.9103 22.008 87.2223 22.32C87.5583 22.608 88.1103 22.752 88.8783 22.752H91.2183V27H88.0503C83.8023 27 81.6783 24.936 81.6783 20.808V11.196H79.3023V7.056H81.6783V2.124H86.7543V7.056H91.2183V11.196H86.7543ZM99.8834 5.94V12.24H108.343V16.236H99.8834V22.896H109.423V27H94.8434V1.836H109.423V5.94H99.8834ZM125.056 6.768C127.432 6.768 129.352 7.524 130.816 9.036C132.28 10.524 133.012 12.612 133.012 15.3V27H127.972V15.984C127.972 14.4 127.576 13.188 126.784 12.348C125.992 11.484 124.912 11.052 123.544 11.052C122.152 11.052 121.048 11.484 120.232 12.348C119.44 13.188 119.044 14.4 119.044 15.984V27H114.004V7.056H119.044V9.54C119.716 8.676 120.568 8.004 121.6 7.524C122.656 7.02 123.808 6.768 125.056 6.768ZM136.508 16.956C136.508 14.94 136.904 13.152 137.696 11.592C138.512 10.032 139.616 8.832 141.008 7.992C142.4 7.152 143.948 6.732 145.652 6.732C146.948 6.732 148.184 7.02 149.36 7.596C150.536 8.148 151.472 8.892 152.168 9.828V0.36H157.28V27H152.168V24.048C151.544 25.032 150.668 25.824 149.54 26.424C148.412 27.024 147.104 27.324 145.616 27.324C143.936 27.324 142.4 26.892 141.008 26.028C139.616 25.164 138.512 23.952 137.696 22.392C136.904 20.808 136.508 18.996 136.508 16.956ZM152.204 17.028C152.204 15.804 151.964 14.76 151.484 13.896C151.004 13.008 150.356 12.336 149.54 11.88C148.724 11.4 147.848 11.16 146.912 11.16C145.976 11.16 145.112 11.388 144.32 11.844C143.528 12.3 142.88 12.972 142.376 13.86C141.896 14.724 141.656 15.756 141.656 16.956C141.656 18.156 141.896 19.212 142.376 20.124C142.88 21.012 143.528 21.696 144.32 22.176C145.136 22.656 146 22.896 146.912 22.896C147.848 22.896 148.724 22.668 149.54 22.212C150.356 21.732 151.004 21.06 151.484 20.196C151.964 19.308 152.204 18.252 152.204 17.028ZM180.743 16.596C180.743 17.316 180.695 17.964 180.599 18.54H166.019C166.139 19.98 166.643 21.108 167.531 21.924C168.419 22.74 169.511 23.148 170.807 23.148C172.679 23.148 174.011 22.344 174.803 20.736H180.239C179.663 22.656 178.559 24.24 176.927 25.488C175.295 26.712 173.291 27.324 170.915 27.324C168.995 27.324 167.267 26.904 165.731 26.064C164.219 25.2 163.031 23.988 162.167 22.428C161.327 20.868 160.907 19.068 160.907 17.028C160.907 14.964 161.327 13.152 162.167 11.592C163.007 10.032 164.183 8.832 165.695 7.992C167.207 7.152 168.947 6.732 170.915 6.732C172.811 6.732 174.503 7.14 175.991 7.956C177.503 8.772 178.667 9.936 179.483 11.448C180.323 12.936 180.743 14.652 180.743 16.596ZM175.523 15.156C175.499 13.86 175.031 12.828 174.119 12.06C173.207 11.268 172.091 10.872 170.771 10.872C169.523 10.872 168.467 11.256 167.603 12.024C166.763 12.768 166.247 13.812 166.055 15.156H175.523ZM189.462 10.152C190.11 9.096 190.95 8.268 191.982 7.668C193.038 7.068 194.238 6.768 195.582 6.768V12.06H194.25C192.666 12.06 191.466 12.432 190.65 13.176C189.858 13.92 189.462 15.216 189.462 17.064V27H184.422V7.056H189.462V10.152ZM206.608 27.324C204.976 27.324 203.512 27.036 202.216 26.46C200.92 25.86 199.888 25.056 199.12 24.048C198.376 23.04 197.968 21.924 197.896 20.7H202.972C203.068 21.468 203.44 22.104 204.088 22.608C204.76 23.112 205.588 23.364 206.572 23.364C207.532 23.364 208.276 23.172 208.804 22.788C209.356 22.404 209.632 21.912 209.632 21.312C209.632 20.664 209.296 20.184 208.624 19.872C207.976 19.536 206.932 19.176 205.492 18.792C204.004 18.432 202.78 18.06 201.82 17.676C200.884 17.292 200.068 16.704 199.372 15.912C198.7 15.12 198.364 14.052 198.364 12.708C198.364 11.604 198.676 10.596 199.3 9.684C199.948 8.772 200.86 8.052 202.036 7.524C203.236 6.996 204.64 6.732 206.248 6.732C208.624 6.732 210.52 7.332 211.936 8.532C213.352 9.708 214.132 11.304 214.276 13.32H209.452C209.38 12.528 209.044 11.904 208.444 11.448C207.868 10.968 207.088 10.728 206.104 10.728C205.192 10.728 204.484 10.896 203.98 11.232C203.5 11.568 203.26 12.036 203.26 12.636C203.26 13.308 203.596 13.824 204.268 14.184C204.94 14.52 205.984 14.868 207.4 15.228C208.84 15.588 210.028 15.96 210.964 16.344C211.9 16.728 212.704 17.328 213.376 18.144C214.072 18.936 214.432 19.992 214.456 21.312C214.456 22.464 214.132 23.496 213.484 24.408C212.86 25.32 211.948 26.04 210.748 26.568C209.572 27.072 208.192 27.324 206.608 27.324Z" fill="white"/>
</svg>
